<svg xmlns="http://www.w3.org/2000/svg" enable-background="new 0 0 48 48" viewBox="0 0 48 48"><path fill="#5e35b1" d="M23.558,35.841L0.619,25.328c-0.826-0.379-0.826-1.552,0-1.931L22.673,13.29
	c0.843-0.386,1.812-0.386,2.655,0l22.053,10.108c0.826,0.379,0.826,1.552,0,1.931L24.442,35.841
	C24.162,35.97,23.838,35.97,23.558,35.841z"/><path fill="#7e57c2" d="M37,26c0-2.209-5.82-4-13-4s-13,1.791-13,4c0,1.196,0,6.804,0,8h26C37,32.804,37,27.196,37,26z"/><ellipse cx="24" cy="34" fill="#7e57c2" rx="13" ry="4"/><ellipse cx="24" cy="33.5" fill="#311b92" rx="11" ry="3"/><path fill="#ff9800" d="M44,40c-0.553,0-1-0.448-1-1V22c0-0.552,0.447-1,1-1s1,0.448,1,1v17C45,39.552,44.553,40,44,40z"/><circle cx="44" cy="36" r="2" fill="#ffc107"/></svg>